:SAMPLES-PER-SECOND 24
:FULLY-SPECIFIED
:DEGREES
21
root  8.16718 39.8671 31.1616 -12.5254 4.3811 -23.7782
RightUpLeg  -47.7653 -24.4721 -12.4598
RightLeg  84.8769 -0.495284 -13.9696
RightFoot  1.04128 -0.294545 2.74622
RightToes  -2.08645e-008 3.77894e-005 6.81332e-007
Spine  8.97272 3.28122 10.17
Spine1  7.34568 2.38247 7.74992
HEad  -19.9257 42.786 -11.4023
LeftShoulder1  6.27399 -11.7974 -34.9869
LeftArm  -13.9958 16.9028 -20.2139
LeftForeArm  95.4463 -80.3642 -84.6663
LeftHand  -0.640191 -2.3399 9.81934
RightShoulder  4.24854 6.94235 34.7733
RightArm  1.2188 -15.5775 22.3405
RightForeArm  43.8775 70.1018 26.9837
RightHand  -0.583574 5.23448 -6.67688
LeftUpLeg  -6.73312 1.27468 14.6865
LeftLeg  25.4501 9.51842 5.23375
LeftFoot  -4.87179 -0.262656 5.1597
LeftToes  1.24767e-006 1.47042e-008 1.32732e-009
22
root  7.9048 40.1641 31.5371 -16.2546 9.35864 -28.0717
RightUpLeg  -51.8771 -24.5712 -13.9134
RightLeg  79.7277 -2.14649 -16.1298
RightFoot  -3.01262 -0.23525 2.94146
RightToes  -2.08645e-008 3.77894e-005 6.81332e-007
Spine  10.5617 2.42183 9.93326
Spine1  7.64814 0.728587 11.3914
HEad  -19.4139 41.251 -9.98833
LeftShoulder1  6.2097 -11.7724 -34.6384
LeftArm  -12.3652 11.9325 -20.3654
LeftForeArm  93.3496 -80.3243 -82.5711
LeftHand  -0.678222 -2.35444 10.3689
RightShoulder  4.28606 6.95463 35.08
RightArm  -1.36753 -19.4034 21.0941
RightForeArm  49.6273 73.5448 33.9803
RightHand  -0.742698 5.74755 -8.03635
LeftUpLeg  -5.33526 -2.2352 18.5146
LeftLeg  25.3391 7.53401 4.20303
LeftFoot  -4.01478 -0.329335 5.51516
LeftToes  1.24767e-006 1.47042e-008 1.32732e-009
23
root  7.54639 40.4133 31.9325 -19.979 13.3952 -31.9566
RightUpLeg  -55.3992 -24.5972 -15.4108
RightLeg  75.3734 -3.8937 -17.9369
RightFoot  -6.13135 -0.201067 3.50117
RightToes  -2.08645e-008 3.77894e-005 6.81332e-007
Spine  11.9659 1.7891 9.58913
Spine1  7.64135 -0.470347 14.1194
HEad  -18.6709 39.827 -8.0482
LeftShoulder1  6.11889 -11.7161 -34.1977
LeftArm  -10.766 7.70228 -21.0432
LeftForeArm  91.9913 -80.2861 -81.4921
LeftHand  -0.685525 -2.64864 10.1157
RightShoulder  4.32322 6.9705 35.3683
RightArm  -3.21401 -22.4042 21.085
RightForeArm  64.4312 77.4828 47.7997
RightHand  -0.87345 6.39542 -8.91387
LeftUpLeg  -4.49745 -5.91234 21.9237
LeftLeg  25.7137 5.93039 3.43364
LeftFoot  -3.3923 -0.359759 5.46774
LeftToes  1.24767e-006 1.47042e-008 1.32732e-009
24
root  7.15391 40.6699 32.3708 -23.4763 16.2072 -35.1159
RightUpLeg  -58.6556 -24.1848 -16.485
RightLeg  72.2036 -4.93885 -17.7723
RightFoot  -8.08858 -0.167218 3.95563
RightToes  -2.08645e-008 3.77894e-005 6.81332e-007
Spine  13.2213 1.28744 9.36095
Spine1  7.56139 -1.19209 15.5277
HEad  -17.6275 39.0448 -5.84274
LeftShoulder1  6.02644 -11.6391 -33.7957
LeftArm  -9.10269 4.81915 -21.8547
LeftForeArm  94.5259 -80.3391 -84.0495
LeftHand  -0.648737 -2.87107 9.34192
RightShoulder  4.33064 6.97721 35.4312
RightArm  -4.18965 -23.3592 22.2351
RightForeArm  95.1356 80.5033 76.6527
RightHand  -0.826344 6.49129 -8.38765
LeftUpLeg  -3.67177 -8.13431 24.8572
LeftLeg  26.0046 4.59042 2.76653
LeftFoot  -2.5117 -0.37732 5.08181
LeftToes  1.24767e-006 1.47042e-008 1.32732e-009
25
root  6.72295 40.9635 32.8456 -26.519 18.3807 -37.6626
RightUpLeg  -61.7401 -23.5475 -16.8631
RightLeg  70.3635 -5.13356 -16.4703
RightFoot  -9.56494 -0.145943 5.25638
RightToes  -2.08645e-008 3.77894e-005 6.81332e-007
Spine  14.1788 0.959067 8.7829
Spine1  7.31838 -1.61567 16.2885
HEad  -16.5184 38.57 -3.63764
LeftShoulder1  5.97291 -11.6023 -33.5404
LeftArm  -6.8946 2.85237 -22.7889
LeftForeArm  97.0672 -80.3809 -86.4461
LeftHand  -0.620891 -2.79974 9.02583
RightShoulder  4.33147 6.97773 35.4018
RightArm  -3.97327 -22.0578 23.5498
RightForeArm  117.982 80.6332 99.7435
RightHand  -0.747879 6.0888 -7.87566
LeftUpLeg  -3.30965 -8.75803 27.411
LeftLeg  26.4039 3.31738 2.12169
LeftFoot  -0.926442 -0.429351 4.76984
LeftToes  1.24767e-006 1.47042e-008 1.32732e-009
26
root  6.3425 41.2159 33.2617 -30.1899 21.4444 -40.8569
RightUpLeg  -63.3348 -24.2774 -16.9523
RightLeg  70.4629 -4.61702 -15.0574
RightFoot  -11.0173 -0.0938101 6.94203
RightToes  -2.08645e-008 3.77894e-005 6.81332e-007
Spine  15.2199 0.384728 8.12411
Spine1  6.95402 -2.52824 17.8083
HEad  -15.78 37.5564 -1.44497
LeftShoulder1  5.99629 -11.6751 -33.5049
LeftArm  -4.41923 1.09338 -24.4085
LeftForeArm  94.2171 -80.3481 -83.1977
LeftHand  -0.617845 -2.9816 8.799
RightShoulder  4.32457 6.9704 35.3821
RightArm  -2.99736 -20.1923 24.0822
RightForeArm  121.354 80.4779 103.487
RightHand  -0.735755 5.75579 -7.9674
LeftUpLeg  -4.15417 -7.91275 29.7954
LeftLeg  27.5716 2.50041 1.7504
LeftFoot  0.781895 -0.506279 4.71985
LeftToes  1.24767e-006 1.47042e-008 1.32732e-009
27
root  6.01728 41.3834 33.6152 -34.7092 24.7253 -44.3362
RightUpLeg  -63.6086 -25.5436 -16.8185
RightLeg  72.5544 -3.78527 -14.3355
RightFoot  -12.3844 -0.0154106 7.54342
RightToes  -2.08645e-008 3.77894e-005 6.81332e-007
Spine  17.4163 -0.20119 7.87971
Spine1  5.77996 -3.22762 19.2032
HEad  -15.6436 35.8319 0.135818
LeftShoulder1  6.12178 -11.8584 -33.8468
LeftArm  -1.70079 -0.378763 -26.2413
LeftForeArm  90.7485 -80.2701 -79.1633
LeftHand  -0.608373 -3.51434 8.18388
RightShoulder  4.23385 6.87853 34.8809
RightArm  -2.18566 -19.6641 23.9193
RightForeArm  128.313 80.0842 110.807
RightHand  -0.822756 6.56321 -8.30819
LeftUpLeg  -4.75455 -3.44519 31.3763
LeftLeg  27.9878 4.64188 3.00606
LeftFoot  1.99173 -0.581925 4.87205
LeftToes  1.24767e-006 1.47042e-008 1.32732e-009
28
root  5.75192 41.3612 33.9518 -39.448 27.3508 -47.4848
RightUpLeg  -63.4559 -26.2585 -16.2735
RightLeg  75.6956 -3.04201 -14.8401
RightFoot  -13.1651 0.0249234 7.17439
RightToes  -2.08645e-008 3.77894e-005 6.81332e-007
Spine  20.1867 -0.672482 8.36453
Spine1  4.12975 -3.36823 19.7155
HEad  -15.9853 33.7813 0.717032
LeftShoulder1  6.25598 -12.0135 -34.308
LeftArm  1.36691 -1.25894 -27.5829
LeftForeArm  92.0883 -80.3188 -80.0263
LeftHand  -0.593372 -3.87851 7.69643
RightShoulder  4.07884 6.72022 34.0064
RightArm  -1.85691 -20.2847 23.4178
RightForeArm  137.52 78.6414 124.003
RightHand  -1.26468 8.95458 -10.5388
LeftUpLeg  -3.88536 2.09231 32.0217
LeftLeg  26.7614 10.0519 5.79014
LeftFoot  1.01607 -0.59326 5.42867
LeftToes  1.24767e-006 1.47042e-008 1.32732e-009
29
root  5.55634 41.0952 34.2324 -43.9446 29.2352 -50.2918
RightUpLeg  -63.1245 -25.831 -15.4429
RightLeg  78.7815 -2.35884 -15.8044
RightFoot  -13.6872 0.0449804 6.7318
RightToes  -2.08645e-008 3.77894e-005 6.81332e-007
Spine  22.7066 -1.07303 9.6662
Spine1  2.7692 -3.10998 19.5523
HEad  -16.8426 31.4513 0.837835
LeftShoulder1  6.2985 -12.0598 -34.4595
LeftArm  4.00273 -1.94598 -28.8759
LeftForeArm  94.364 -80.399 -81.3929
LeftHand  -0.569871 -3.92942 7.36576
RightShoulder  4.01847 6.64786 33.6986
RightArm  -2.01034 -20.7172 22.5973
RightForeArm  136.265 77.5803 128.846
RightHand  -2.06288 11.1868 -14.7151
LeftUpLeg  -2.62178 2.15427 32.5411
LeftLeg  26.4318 13.8962 7.73398
LeftFoot  -2.06542 -0.415799 5.24952
LeftToes  1.24767e-006 1.47042e-008 1.32732e-009
30
root  5.38395 40.739 34.4942 -47.6797 30.699 -52.5929
RightUpLeg  -62.873 -24.3265 -14.2348
RightLeg  81.3201 -1.65754 -16.0901
RightFoot  -14.5292 0.0842969 6.568
RightToes  -2.08645e-008 3.77894e-005 6.81332e-007
Spine  24.2711 -1.21535 11.0303
Spine1  2.50732 -2.67207 19.2107
HEad  -18.6654 29.0518 0.69242
LeftShoulder1  6.36422 -12.1476 -34.6496
LeftArm  5.54938 -2.57614 -29.9428
LeftForeArm  93.7334 -80.403 -79.5938
LeftHand  -0.547104 -3.91453 7.09368
RightShoulder  4.08026 6.69882 34.1029
RightArm  -2.71226 -20.443 22.024
RightForeArm  131.626 77.839 126.385
RightHand  -2.54363 11.9734 -17.2525
LeftUpLeg  -2.37162 -1.94538 33.3039
LeftLeg  28.4501 13.2369 7.9789
LeftFoot  -5.24007 -0.179526 3.92098
LeftToes  1.24767e-006 1.47042e-008 1.32732e-009
31
root  5.20115 40.5124 34.8141 -50.7488 32.4945 -54.453
RightUpLeg  -62.468 -23.0399 -12.5609
RightLeg  82.9047 -1.19548 -16.1372
RightFoot  -15.0885 0.113869 6.60539
RightToes  -2.08645e-008 3.77894e-005 6.81332e-007
Spine  24.6781 -1.19481 11.4885
Spine1  3.50225 -2.55383 18.9691
HEad  -21.2759 27.0979 0.108472
LeftShoulder1  6.56561 -12.3745 -35.3239
LeftArm  6.13014 -2.49685 -29.9183
LeftForeArm  90.9722 -80.309 -76.5549
LeftHand  -0.569981 -3.87698 7.40604
RightShoulder  4.14699 6.76239 34.5016
RightArm  -3.3466 -19.6674 22.6677
RightForeArm  131.419 78.4101 123.421
RightHand  -2.45849 12.1684 -16.5137
LeftUpLeg  -2.67732 -4.23124 33.8918
LeftLeg  30.1745 10.7382 7.00988
LeftFoot  -7.17987 -0.0891586 3.64172
LeftToes  1.24767e-006 1.47042e-008 1.32732e-009
32
root  5.02463 40.5054 35.1469 -53.3132 35.2345 -56.0386
RightUpLeg  -61.6404 -22.8057 -11.1172
RightLeg  83.093 -1.1289 -16.0161
RightFoot  -15.1758 0.128904 6.92182
RightToes  -2.08645e-008 3.77894e-005 6.81332e-007
Spine  24.4321 -1.12164 10.716
Spine1  4.65056 -2.80441 18.8611
HEad  -23.2868 25.3544 -0.277947
LeftShoulder1  6.78591 -12.6062 -36.0797
LeftArm  5.92762 -1.19912 -29.4302
LeftForeArm  86.4498 -80.0957 -72.2845
LeftHand  -0.607926 -3.7656 7.96923
RightShoulder  4.16539 6.77699 34.6218
RightArm  -3.06164 -19.0535 24.3735
RightForeArm  132.085 78.9959 120.24
RightHand  -2.12858 12.4842 -14.1335
LeftUpLeg  -2.86196 -6.11077 33.0664
LeftLeg  30.1589 9.84848 6.46435
LeftFoot  -7.51776 -0.088866 4.01209
LeftToes  1.24767e-006 1.47042e-008 1.32732e-009
33
root  4.93843 40.6234 35.4355 -54.4854 38.4657 -56.9358
RightUpLeg  -61.3409 -22.9354 -10.3932
RightLeg  82.1227 -1.25166 -14.5982
RightFoot  -15.6019 0.17944 7.65455
RightToes  -2.08645e-008 3.77894e-005 6.81332e-007
Spine  23.5659 -0.896033 9.93221
Spine1  4.88479 -2.68964 18.1302
HEad  -23.5343 23.3685 0.0419435
LeftShoulder1  6.8891 -12.7067 -36.4451
LeftArm  5.40545 1.57409 -29.2249
LeftForeArm  83.9558 -79.9484 -69.6597
LeftHand  -0.59558 -3.76736 7.81162
RightShoulder  4.17984 6.78928 34.7126
RightArm  -1.64572 -19.5677 25.8375
RightForeArm  129.919 79.7549 114.201
RightHand  -1.47422 12.8503 -9.74895
LeftUpLeg  -3.06097 -9.35506 30.8562
LeftLeg  29.0657 10.5613 6.61931
LeftFoot  -7.08459 -0.0880326 3.52646
LeftToes  1.24767e-006 1.47042e-008 1.32732e-009
34
root  4.98337 40.8549 35.7138 -53.5669 41.5806 -56.779
RightUpLeg  -62.4295 -22.7074 -9.95488
RightLeg  80.7075 -1.3805 -12.7735
RightFoot  -16.381 0.262805 8.48181
RightToes  -2.08645e-008 3.77894e-005 6.81332e-007
Spine  21.3863 -0.41559 9.70348
Spine1  4.70482 -2.03936 16.273
HEad  -22.541 21.5228 0.462291
LeftShoulder1  6.88908 -12.6797 -36.5141
LeftArm  4.94377 5.66156 -28.6603
LeftForeArm  87.3647 -80.1434 -73.0735
LeftHand  -0.560586 -3.90382 7.2694
RightShoulder  4.23039 6.84733 34.9695
RightArm  0.405339 -20.8881 26.3077
RightForeArm  125.725 80.4733 105.79
RightHand  -0.605754 13.5775 -4.13454
LeftUpLeg  -3.61397 -10.9656 28.5154
LeftLeg  27.082 10.7084 6.21738
LeftFoot  -5.82906 -0.121896 3.25824
LeftToes  1.24767e-006 1.47042e-008 1.32732e-009
